<svg xmlns="http://www.w3.org/2000/svg" version="1.1" viewBox="-1042.299991066247 -1325.226255245881 3296.531834943426 3236.547237491118">
<rect desc="xx" x="-1042.299991066247" y="-1325.226255245881" width="3296.531834943426" height="3236.547237491118" fill="white" />
<line x1="707.0" y1="293.5" x2="651.5" y2="293.5" stroke="#0087af" stroke-width="1.00"/>
<line x1="707.0" y1="329.5" x2="651.5" y2="329.5" stroke="#0087af" stroke-width="1.00"/>
<line x1="803.0" y1="293.5" x2="858.5" y2="293.5" stroke="#0087af" stroke-width="1.00"/>
<line x1="803.0" y1="329.5" x2="858.5" y2="329.5" stroke="#0087af" stroke-width="1.00"/>
<line x1="636.5" y1="293.5" x2="636.5" y2="130.9999999999998" stroke="#0087af" stroke-width="1.00" />
<line x1="651.4999999999992" y1="293.5" x2="651.4999999999992" y2="131.0" stroke="#0087af" stroke-width="1.00" />
<text x="682.1872205373019" y="197.359763788465" font-size="4.5" >\pi19.221;31'-10"\P\pi10.972;EXIT ACCESS \P\pi2.9914;TRAVEL DISTANCE </text>
<path d="M 713.0000000000284 164.7749281613368 L 713.0000000000284 191.7749281613368 L 797.0000000000284 191.7749281613368 L 797.0000000000284 164.7749281613368 Z" fill="none" stroke="#008787" stroke-width="1.00" />
<path d="M 740.0000000000284 164.7749281613368 L 740.0000000000284 191.7749281613368 L 770.0000000000284 191.7749281613368 L 770.0000000000284 164.7749281613368 Z" fill="none" stroke="#008787" stroke-width="1.00" />
<path d="M 707.0000000000284 158.77492816133667 L 707.0000000000284 191.7749281613368 L 803.0000000000284 191.7749281613368 L 803.0000000000284 158.77492816133667 Z" fill="none" stroke="#008787" stroke-width="1.00" />
<path d="M 740.0000000000284 158.77492816133667 L 740.0000000000284 191.7749281613368 L 770.0000000000284 191.7749281613368 L 770.0000000000284 158.77492816133667 Z" fill="none" stroke="#008787" stroke-width="1.00" />
<path d="M 704.5000000000284 156.27492816133667 L 704.5000000000284 191.7749281613368 L 805.5000000000284 191.7749281613368 L 805.5000000000284 156.27492816133667 Z" fill="none" stroke="#008787" stroke-width="1.00" />
<path d="M 785.0000000000282 232.7749281613369 L 761.0000000000281 232.7749281613369 L 761.0000000000281 208.7749281613369 L 785.0000000000282 208.7749281613369 Z" fill="none" stroke="#008787" stroke-width="1.00" />
<path d="M 817.5000000000282 237.7749281613369 L 852.5000000000282 237.7749281613369 L 852.5000000000282 203.7749281613369 L 817.5000000000282 203.7749281613369 Z" fill="none" stroke="#008787" stroke-width="1.00" />
<line x1="846.5000000000282" y1="237.7749281613369" x2="846.5000000000282" y2="203.7749281613369" stroke="#008787" stroke-width="1.00" />
<line x1="817.5000000000282" y1="233.7749281613369" x2="846.5000000000282" y2="233.7749281613369" stroke="#008787" stroke-width="1.00" />
<line x1="817.5000000000282" y1="207.7749281613369" x2="846.5000000000282" y2="207.7749281613369" stroke="#008787" stroke-width="1.00" />
<path d="M 749.0000000000281 232.7749281613369 L 725.0000000000282 232.7749281613369 L 725.0000000000282 208.7749281613369 L 749.0000000000281 208.7749281613369 Z" fill="none" stroke="#008787" stroke-width="1.00" />
<circle cx="826.5147186257896" cy="182.5102095355751" r="12.0" stroke="#008787" stroke-width="1.00" fill="none" />
<text x="866.1661269919072" y="346.3341903590702" font-size="9.0" >F.E.</text>
<path d="M 874.5000000000654 336.8135678472672 L 872.5000000000655 336.8135678472672 L 872.5000000000655 334.8135678472672 L 874.5000000000654 334.8135678472672 L 874.5000000000654 334.8135678472672 L 874.5000000000654 330.8135678472672 L 886.5000000000655 330.8135678472672 L 886.5000000000655 334.8135678472672 L 886.5000000000655 334.8135678472672 L 888.5000000000655 334.8135678472672 L 888.5000000000655 336.8135678472672 L 886.5000000000655 336.8135678472672 Z" fill="none" stroke="#8700af" stroke-width="1.00" />
<circle cx="880.5000000000655" cy="334.8135678472672" r="2.003216932835699" stroke="#8700af" stroke-width="1.00" fill="none" />
<line x1="863.9999999999991" y1="125.4999999999998" x2="899.9999999999998" y2="125.4999999999998" stroke="#ff0000" stroke-width="1.00" />
<line x1="894.4999999999998" y1="130.9999999999998" x2="858.4999999999991" y2="130.9999999999998" stroke="#ff0000" stroke-width="1.00" />
<line x1="894.4999999999995" y1="325.9999999999999" x2="894.4999999999995" y2="296.9999999999999" stroke="#ff0000" stroke-width="1.00" />
<line x1="899.9999999999995" y1="273.2499999999998" x2="899.9999999999995" y2="354.2500000000002" stroke="#ff0000" stroke-width="1.00" />
<line x1="894.4999999999995" y1="293.4999999999999" x2="894.4999999999995" y2="273.2499999999998" stroke="#ff0000" stroke-width="1.00" />
<line x1="894.4999999999995" y1="273.2499999999998" x2="899.9999999999995" y2="273.2499999999998" stroke="#ff0000" stroke-width="1.00" />
<line x1="899.9999999999998" y1="237.2499999999998" x2="894.4999999999998" y2="237.2499999999998" stroke="#ff0000" stroke-width="1.00" />
<line x1="894.4999999999998" y1="237.2499999999998" x2="894.4999999999998" y2="187.2499999999998" stroke="#ff0000" stroke-width="1.00" />
<line x1="894.4999999999998" y1="187.2499999999998" x2="899.9999999999998" y2="187.2499999999998" stroke="#ff0000" stroke-width="1.00" />
<line x1="899.9999999999998" y1="187.2499999999998" x2="899.9999999999998" y2="237.2499999999998" stroke="#ff0000" stroke-width="1.00" />
<line x1="899.9999999999998" y1="151.2499999999998" x2="894.4999999999998" y2="151.2499999999998" stroke="#ff0000" stroke-width="1.00" />
<line x1="894.4999999999998" y1="151.2499999999998" x2="894.4999999999998" y2="130.9999999999998" stroke="#ff0000" stroke-width="1.00" />
<line x1="899.9999999999998" y1="125.4999999999998" x2="899.9999999999998" y2="151.2499999999998" stroke="#ff0000" stroke-width="1.00" />
<line x1="899.9999999999995" y1="354.2500000000002" x2="894.4999999999995" y2="354.2500000000002" stroke="#ff0000" stroke-width="1.00" />
<line x1="894.4999999999995" y1="354.2500000000002" x2="894.4999999999995" y2="329.4999999999999" stroke="#ff0000" stroke-width="1.00" />
<line x1="858.4999999999991" y1="130.9999999999998" x2="858.4999999999991" y2="98.74999999999991" stroke="#ff0000" stroke-width="1.00" />
<line x1="858.4999999999991" y1="98.74999999999991" x2="863.9999999999991" y2="98.74999999999991" stroke="#ff0000" stroke-width="1.00" />
<line x1="863.9999999999991" y1="98.74999999999991" x2="863.9999999999991" y2="125.4999999999998" stroke="#ff0000" stroke-width="1.00" />
<line x1="-210.4999999999993" y1="389.5000000000002" x2="230.0000000000007" y2="389.5000000000002" stroke="#8a8a8a" stroke-width="1.00" />
<line x1="230.0000000000007" y1="389.5000000000002" x2="229.9999999999989" y2="678.5000000000001" stroke="#8a8a8a" stroke-width="1.00" />
<line x1="229.9999999999989" y1="678.5000000000002" x2="-210.5000000000011" y2="678.5" stroke="#8a8a8a" stroke-width="1.00" />
<line x1="-210.5000000000011" y1="678.5" x2="-210.4999999999993" y2="389.5000000000002" stroke="#8a8a8a" stroke-width="1.00" />
<line x1="648.0" y1="326.0" x2="648.0" y2="297.0" stroke="#ff0000" stroke-width="1.00" />
<line x1="651.5" y1="293.5" x2="651.5" y2="329.5" stroke="#ff0000" stroke-width="1.00" />
<line x1="648.0" y1="95.0" x2="640.0" y2="94.99999999999996" stroke="#ff0000" stroke-width="1.00" />
<line x1="636.5" y1="329.5" x2="636.5" y2="293.5" stroke="#ff0000" stroke-width="1.00" />
<line x1="640.0" y1="297.0" x2="640.0" y2="326.0" stroke="#ff0000" stroke-width="1.00" />
<line x1="640.0" y1="326.0" x2="648.0" y2="326.0" stroke="#ff0000" stroke-width="1.00" />
<line x1="651.5" y1="329.5" x2="636.5" y2="329.5" stroke="#ff0000" stroke-width="1.00" />
<line x1="648.0" y1="297.0" x2="640.0" y2="297.0" stroke="#ff0000" stroke-width="1.00" />
<line x1="636.5" y1="293.5" x2="651.5" y2="293.5" stroke="#ff0000" stroke-width="1.00" />
<line x1="775.999999999999" y1="297.0" x2="733.999999999999" y2="297.0" stroke="#0087af" stroke-width="1.00" />
<line x1="775.999999999999" y1="293.5" x2="733.999999999999" y2="293.5" stroke="#0087af" stroke-width="1.00" />
<line x1="775.999999999999" y1="297.0" x2="733.999999999999" y2="297.0" stroke="#0087af" stroke-width="1.00" />
<line x1="775.999999999999" y1="293.5" x2="733.999999999999" y2="293.5" stroke="#0087af" stroke-width="1.00" />
<line x1="721.4999999999999" y1="326.0" x2="721.4999999999999" y2="297.0" stroke="#ff0000" stroke-width="1.00" />
<line x1="725.0" y1="297.0" x2="725.0" y2="326.0" stroke="#ff0000" stroke-width="1.00" />
<line x1="788.4999999999999" y1="297.0" x2="788.4999999999999" y2="326.0" stroke="#ff0000" stroke-width="1.00" />
<line x1="785.0" y1="326.0" x2="785.0" y2="297.0" stroke="#ff0000" stroke-width="1.00" />
<line x1="707.0" y1="329.5" x2="707.0" y2="293.5" stroke="#ff0000" stroke-width="1.00" />
<line x1="710.5" y1="297.0" x2="710.5" y2="326.0" stroke="#ff0000" stroke-width="1.00" />
<line x1="721.4999999999999" y1="297.0" x2="710.5" y2="297.0" stroke="#ff0000" stroke-width="1.00" />
<line x1="707.0" y1="293.5" x2="733.999999999999" y2="293.5" stroke="#ff0000" stroke-width="1.00" />
<line x1="799.5" y1="297.0" x2="788.4999999999999" y2="297.0" stroke="#ff0000" stroke-width="1.00" />
<line x1="775.999999999999" y1="293.5" x2="803.0" y2="293.5" stroke="#ff0000" stroke-width="1.00" />
<line x1="785.0" y1="297.0" x2="775.999999999999" y2="297.0" stroke="#ff0000" stroke-width="1.00" />
<line x1="775.999999999999" y1="297.0" x2="775.999999999999" y2="293.5" stroke="#ff0000" stroke-width="1.00" />
<line x1="733.999999999999" y1="293.5" x2="733.999999999999" y2="297.0" stroke="#ff0000" stroke-width="1.00" />
<line x1="733.999999999999" y1="297.0" x2="725.0" y2="297.0" stroke="#ff0000" stroke-width="1.00" />
<line x1="710.5" y1="326.0" x2="721.4999999999999" y2="326.0" stroke="#ff0000" stroke-width="1.00" />
<line x1="707.0" y1="329.5" x2="733.999999999999" y2="329.5" stroke="#ff0000" stroke-width="1.00" />
<line x1="725.0" y1="326.0" x2="733.999999999999" y2="326.0" stroke="#ff0000" stroke-width="1.00" />
<line x1="733.999999999999" y1="326.0" x2="733.999999999999" y2="329.5" stroke="#ff0000" stroke-width="1.00" />
<line x1="775.999999999999" y1="329.5" x2="775.999999999999" y2="326.0" stroke="#ff0000" stroke-width="1.00" />
<line x1="775.999999999999" y1="326.0" x2="785.0" y2="326.0" stroke="#ff0000" stroke-width="1.00" />
<line x1="775.999999999999" y1="329.5" x2="803.0" y2="329.5" stroke="#ff0000" stroke-width="1.00" />
<line x1="788.4999999999999" y1="326.0" x2="799.5" y2="326.0" stroke="#ff0000" stroke-width="1.00" />
<line x1="803.0" y1="293.5" x2="803.0" y2="329.5" stroke="#ff0000" stroke-width="1.00" />
<line x1="799.5" y1="326.0" x2="799.5" y2="297.0" stroke="#ff0000" stroke-width="1.00" />
<line x1="862.0000000002857" y1="326.0" x2="894.4999999999998" y2="326.0" stroke="#ff0000" stroke-width="1.00" />
<line x1="894.4999999999998" y1="329.5" x2="858.5000000001338" y2="329.5" stroke="#ff0000" stroke-width="1.00" />
<line x1="894.4999999999998" y1="297.0" x2="862.0000000002857" y2="297.0" stroke="#ff0000" stroke-width="1.00" />
<line x1="858.5000000002857" y1="293.5" x2="894.4999999999998" y2="293.5" stroke="#ff0000" stroke-width="1.00" />
<line x1="775.999999999999" y1="329.5" x2="733.999999999999" y2="329.5" stroke="#0087af" stroke-width="1.00" />
<line x1="775.999999999999" y1="326.0" x2="733.999999999999" y2="326.0" stroke="#0087af" stroke-width="1.00" />
<line x1="862.0000000002857" y1="297.0" x2="862.0000000002857" y2="326.0" stroke="#ff0000" stroke-width="1.00" />
<line x1="858.5000000002857" y1="329.5" x2="858.5000000002857" y2="293.5" stroke="#ff0000" stroke-width="1.00" />
<line x1="526.0000000000007" y1="335.0000000000005" x2="894.5000000000009" y2="335.0000000000004" stroke="#8a8a8a" stroke-width="1.00" />
<line x1="894.5000000000009" y1="335.0000000000004" x2="894.4999999999991" y2="678.5000000000008" stroke="#8a8a8a" stroke-width="1.00" />
<line x1="894.4999999999991" y1="678.5000000000008" x2="852.999999999999" y2="678.5000000000008" stroke="#8a8a8a" stroke-width="1.00" />
<line x1="852.999999999999" y1="678.5000000000008" x2="852.999999999999" y2="774.5" stroke="#8a8a8a" stroke-width="1.00" />
<line x1="852.999999999999" y1="774.5" x2="707.999999999999" y2="774.5" stroke="#8a8a8a" stroke-width="1.00" />
<line x1="707.999999999999" y1="774.5" x2="707.999999999999" y2="678.5000000000008" stroke="#8a8a8a" stroke-width="1.00" />
<line x1="707.999999999999" y1="678.5000000000008" x2="525.9999999999991" y2="678.5000000000008" stroke="#8a8a8a" stroke-width="1.00" />
<line x1="525.9999999999991" y1="678.5000000000008" x2="526.0000000000007" y2="335.0000000000005" stroke="#8a8a8a" stroke-width="1.00" />
<line x1="5.500000000000898" y1="5.500000000000021" x2="138.5000000000009" y2="5.49999999999995" stroke="#8a8a8a" stroke-width="1.00" />
<line x1="138.5000000000009" y1="5.49999999999995" x2="138.4999999999991" y2="202.0" stroke="#8a8a8a" stroke-width="1.00" />
<line x1="138.4999999999991" y1="202.0" x2="5.499999999999136" y2="202.0000000000002" stroke="#8a8a8a" stroke-width="1.00" />
<line x1="5.499999999999136" y1="202.0000000000002" x2="5.500000000000898" y2="5.500000000000021" stroke="#8a8a8a" stroke-width="1.00" />
<line x1="142.0000000000009" y1="5.500000000000481" x2="275.0000000000009" y2="5.500000000000408" stroke="#8a8a8a" stroke-width="1.00" />
<line x1="275.0000000000009" y1="5.500000000000408" x2="274.9999999999991" y2="150.5" stroke="#8a8a8a" stroke-width="1.00" />
<line x1="274.9999999999991" y1="150.5" x2="141.9999999999991" y2="150.5000000000002" stroke="#8a8a8a" stroke-width="1.00" />
<line x1="141.9999999999991" y1="150.5000000000002" x2="142.0000000000009" y2="5.500000000000481" stroke="#8a8a8a" stroke-width="1.00" />
<line x1="5.500000000000898" y1="205.5" x2="186.5000000000009" y2="205.4999999999999" stroke="#8a8a8a" stroke-width="1.00" />
<line x1="186.5000000000009" y1="205.4999999999999" x2="186.4999999999991" y2="386.0" stroke="#8a8a8a" stroke-width="1.00" />
<line x1="186.4999999999991" y1="386.0" x2="5.499999999999133" y2="385.9999999999999" stroke="#8a8a8a" stroke-width="1.00" />
<line x1="5.499999999999133" y1="385.9999999999999" x2="5.500000000000898" y2="205.5" stroke="#8a8a8a" stroke-width="1.00" />
<line x1="389.5000000000008" y1="257.0000000000005" x2="522.5000000000007" y2="257.0000000000004" stroke="#8a8a8a" stroke-width="1.00" />
<line x1="522.5000000000007" y1="257.0000000000004" x2="522.4999999999989" y2="386.0000000000005" stroke="#8a8a8a" stroke-width="1.00" />
<line x1="522.4999999999989" y1="386.0000000000005" x2="389.499999999999" y2="386.0000000000007" stroke="#8a8a8a" stroke-width="1.00" />
<line x1="389.499999999999" y1="386.0000000000007" x2="389.5000000000008" y2="257.0000000000005" stroke="#8a8a8a" stroke-width="1.00" />
<line x1="190.0000000000008" y1="205.5000000000005" x2="275.0000000000008" y2="205.5000000000004" stroke="#8a8a8a" stroke-width="1.00" />
<line x1="275.0000000000008" y1="205.5000000000004" x2="274.999999999999" y2="386.0000000000005" stroke="#8a8a8a" stroke-width="1.00" />
<line x1="274.999999999999" y1="386.0000000000005" x2="189.999999999999" y2="386.0000000000002" stroke="#8a8a8a" stroke-width="1.00" />
<line x1="189.999999999999" y1="386.0000000000002" x2="190.0000000000008" y2="205.5000000000005" stroke="#8a8a8a" stroke-width="1.00" />
<line x1="278.5000000000008" y1="257.0000000000005" x2="386.0000000000009" y2="257.0000000000004" stroke="#8a8a8a" stroke-width="1.00" />
<line x1="386.0000000000009" y1="257.0000000000004" x2="385.999999999999" y2="386.0000000000005" stroke="#8a8a8a" stroke-width="1.00" />
<line x1="385.999999999999" y1="386.0000000000005" x2="278.499999999999" y2="386.0000000000007" stroke="#8a8a8a" stroke-width="1.00" />
<line x1="278.499999999999" y1="386.0000000000007" x2="278.5000000000008" y2="257.0000000000005" stroke="#8a8a8a" stroke-width="1.00" />
<line x1="278.5000000000009" y1="5.500000000000481" x2="520.5000000000008" y2="5.500000000000397" stroke="#8a8a8a" stroke-width="1.00" />
<line x1="520.5000000000008" y1="5.500000000000397" x2="520.4999999999992" y2="253.5000000000004" stroke="#8a8a8a" stroke-width="1.00" />
<line x1="520.4999999999992" y1="253.5000000000004" x2="278.4999999999991" y2="253.5000000000002" stroke="#8a8a8a" stroke-width="1.00" />
<line x1="278.4999999999991" y1="253.5000000000002" x2="278.5000000000009" y2="5.500000000000481" stroke="#8a8a8a" stroke-width="1.00" />
<line x1="526.0" y1="5.50000000000023" x2="646.0" y2="5.500000000001108" stroke="#8a8a8a" stroke-width="1.00" />
<line x1="646.0" y1="5.500000000001108" x2="646.0000000000007" y2="89.50000000000021" stroke="#8a8a8a" stroke-width="1.00" />
<line x1="646.0000000000007" y1="89.50000000000021" x2="526.0000000000006" y2="89.50000000000021" stroke="#8a8a8a" stroke-width="1.00" />
<line x1="526.0000000000006" y1="89.50000000000021" x2="526.0" y2="5.500000000000237" stroke="#8a8a8a" stroke-width="1.00" />
<line x1="651.5000000000007" y1="5.500000000000256" x2="858.4999999999991" y2="5.50000000000017" stroke="#8a8a8a" stroke-width="1.00" />
<line x1="858.4999999999991" y1="5.50000000000017" x2="858.4999999999991" y2="125.5000000000002" stroke="#8a8a8a" stroke-width="1.00" />
<line x1="858.4999999999991" y1="125.5000000000002" x2="894.5" y2="125.5000000000002" stroke="#8a8a8a" stroke-width="1.00" />
<line x1="894.5" y1="125.5000000000002" x2="894.5" y2="293.5000000000002" stroke="#8a8a8a" stroke-width="1.00" />
<line x1="894.5" y1="293.5000000000002" x2="651.4999999999992" y2="293.5000000000005" stroke="#8a8a8a" stroke-width="1.00" />
<line x1="651.4999999999992" y1="293.5000000000005" x2="651.5000000000007" y2="5.500000000000226" stroke="#8a8a8a" stroke-width="1.00" />
<path d="M 764.000000000128 94.36134583467641 L 764.000000000128 103.3613458346626 L 746.0000000001558 103.3613458346626 L 746.0000000001558 94.36134583467641 Z" fill="none" stroke="#c0c0c0" stroke-width="1.00" />
<line x1="380.9999999999998" y1="557.9992640354512" x2="409.0000000000033" y2="557.9992640354512" stroke="#8a8a8a" stroke-width="1.00" />
<line x1="409.0000000000033" y1="557.9992640354512" x2="409.0000000000033" y2="543.5000000000001" stroke="#8a8a8a" stroke-width="1.00" />
<line x1="409.0000000000033" y1="543.5000000000001" x2="522.4999999999989" y2="543.5000000000001" stroke="#8a8a8a" stroke-width="1.00" />
<line x1="522.4999999999989" y1="543.5000000000001" x2="522.4999999999998" y2="855.5000000000003" stroke="#8a8a8a" stroke-width="1.00" />
<line x1="522.4999999999998" y1="855.5000000000003" x2="380.9999999999998" y2="855.5000000000003" stroke="#8a8a8a" stroke-width="1.00" />
<line x1="380.9999999999998" y1="855.5000000000003" x2="380.9999999999998" y2="557.9992640354512" stroke="#8a8a8a" stroke-width="1.00" />
<line x1="374.9999999999998" y1="557.9992640354517" x2="346.9999999999962" y2="557.9992640354517" stroke="#8a8a8a" stroke-width="1.00" />
<line x1="346.9999999999962" y1="557.9992640354517" x2="346.9999999999962" y2="543.5000000000001" stroke="#8a8a8a" stroke-width="1.00" />
<line x1="346.9999999999962" y1="543.5000000000001" x2="233.5000000000008" y2="543.5000000000001" stroke="#8a8a8a" stroke-width="1.00" />
<line x1="233.5000000000008" y1="543.5000000000001" x2="233.4999999999999" y2="855.5000000000003" stroke="#8a8a8a" stroke-width="1.00" />
<line x1="233.4999999999999" y1="855.5000000000003" x2="374.9999999999998" y2="855.5000000000003" stroke="#8a8a8a" stroke-width="1.00" />
<line x1="374.9999999999998" y1="855.5000000000003" x2="374.9999999999998" y2="557.9992640354517" stroke="#8a8a8a" stroke-width="1.00" />
<line x1="422.5000000000013" y1="389.4999999998823" x2="354.5000000000009" y2="389.5000000000002" stroke="#8a8a8a" stroke-width="1.00" />
<line x1="354.5000000000009" y1="389.5000000000002" x2="354.5000000000027" y2="464.5000000000002" stroke="#8a8a8a" stroke-width="1.00" />
<line x1="354.5000000000027" y1="464.5000000000002" x2="422.5000000000013" y2="464.5000000000002" stroke="#8a8a8a" stroke-width="1.00" />
<line x1="422.5000000000013" y1="464.5000000000002" x2="422.5000000000013" y2="389.4999999998823" stroke="#8a8a8a" stroke-width="1.00" />
<line x1="351.0" y1="464.5000000000004" x2="233.5" y2="464.5000000000004" stroke="#8a8a8a" stroke-width="1.00" />
<line x1="233.5" y1="464.5000000000004" x2="233.5" y2="389.5000000000006" stroke="#8a8a8a" stroke-width="1.00" />
<line x1="233.5" y1="389.5000000000006" x2="351.0" y2="389.5000000000002" stroke="#8a8a8a" stroke-width="1.00" />
<line x1="351.0" y1="389.5000000000002" x2="351.0" y2="464.5000000000004" stroke="#8a8a8a" stroke-width="1.00" />
<path d="M 858.4999999999991 96.74999999999993 L 858.4999999999991 98.74999999999991 L 863.9999999999991 98.74999999999991 L 863.9999999999991 96.74999999999993 Z" fill="none" stroke="#afd7af" stroke-width="1.00" />
<line x1="864.9999999999991" y1="99.74999999999994" x2="863.9999999999991" y2="99.74999999999994" stroke="#afd7af" stroke-width="1.00" />
<line x1="857.4999999999992" y1="99.74999999999994" x2="858.4999999999991" y2="99.74999999999994" stroke="#afd7af" stroke-width="1.00" />
<path d="M 894.4999999999998 185.2499999999999 L 894.4999999999998 187.2499999999999 L 899.9999999999998 187.2499999999999 L 899.9999999999998 185.2499999999999 Z" fill="none" stroke="#afd7af" stroke-width="1.00" />
<path d="M 894.4999999999998 153.2499999999999 L 894.4999999999998 151.2499999999999 L 899.9999999999998 151.2499999999999 L 899.9999999999998 153.2499999999999 Z" fill="none" stroke="#afd7af" stroke-width="1.00" />
<line x1="897.2499999999998" y1="153.2499999999999" x2="897.2499999999998" y2="185.2499999999999" stroke="#afd7af" stroke-width="1.00" />
<line x1="899.9999999999998" y1="188.2499999999999" x2="901.0" y2="188.2499999999999" stroke="#afd7af" stroke-width="1.00" />
<line x1="901.0" y1="188.2499999999999" x2="901.0" y2="150.2499999999999" stroke="#afd7af" stroke-width="1.00" />
<line x1="901.0" y1="150.2499999999999" x2="899.9999999999998" y2="150.2499999999999" stroke="#afd7af" stroke-width="1.00" />
<line x1="894.4999999999998" y1="188.2499999999999" x2="893.4999999999998" y2="188.2499999999999" stroke="#afd7af" stroke-width="1.00" />
<line x1="893.4999999999998" y1="188.2499999999999" x2="893.4999999999998" y2="150.2499999999999" stroke="#afd7af" stroke-width="1.00" />
<line x1="893.4999999999998" y1="150.2499999999999" x2="894.4999999999998" y2="150.2499999999999" stroke="#afd7af" stroke-width="1.00" />
<path d="M 894.4999999999998 239.2499999999999 L 894.4999999999998 237.2499999999999 L 899.9999999999998 237.2499999999999 L 899.9999999999998 239.2499999999999 Z" fill="none" stroke="#afd7af" stroke-width="1.00" />
<path d="M 894.4999999999998 271.2499999999999 L 894.4999999999998 273.2499999999999 L 899.9999999999998 273.2499999999999 L 899.9999999999998 271.2499999999999 Z" fill="none" stroke="#afd7af" stroke-width="1.00" />
<line x1="897.2499999999998" y1="239.2499999999999" x2="897.2499999999998" y2="271.2499999999999" stroke="#afd7af" stroke-width="1.00" />
<line x1="899.9999999999998" y1="236.2499999999999" x2="901.0" y2="236.2499999999999" stroke="#afd7af" stroke-width="1.00" />
<line x1="901.0" y1="236.2499999999999" x2="901.0" y2="274.2499999999999" stroke="#afd7af" stroke-width="1.00" />
<line x1="901.0" y1="274.2499999999999" x2="899.9999999999998" y2="274.2499999999999" stroke="#afd7af" stroke-width="1.00" />
<line x1="894.4999999999998" y1="236.2499999999999" x2="893.4999999999998" y2="236.2499999999999" stroke="#afd7af" stroke-width="1.00" />
<line x1="893.4999999999998" y1="236.2499999999999" x2="893.4999999999998" y2="274.2499999999999" stroke="#afd7af" stroke-width="1.00" />
<line x1="893.4999999999998" y1="274.2499999999999" x2="894.4999999999998" y2="274.2499999999999" stroke="#afd7af" stroke-width="1.00" />
<line x1="640.0" y1="94.99999999999976" x2="640.0" y2="127.4999999999998" stroke="#ff0000" stroke-width="1.00" />
<line x1="636.5" y1="130.9999999999998" x2="636.5" y2="94.99999999999976" stroke="#ff0000" stroke-width="1.00" />
<line x1="640.0" y1="127.4999999999998" x2="648.0" y2="127.4999999999998" stroke="#ff0000" stroke-width="1.00" />
<line x1="651.5" y1="130.9999999999998" x2="636.5" y2="130.9999999999998" stroke="#ff0000" stroke-width="1.00" />
<line x1="648.0" y1="127.4999999999998" x2="648.0" y2="95.0" stroke="#ff0000" stroke-width="1.00" />
<line x1="-216.0000000000001" y1="299.9999999999957" x2="2.274e-13" y2="299.9999999999957" stroke="#8a8a8a" stroke-width="1.00" />
<line x1="2.274e-13" y1="299.9999999999957" x2="2.274e-13" y2="384.0000000000001" stroke="#8a8a8a" stroke-width="1.00" />
<line x1="2.274e-13" y1="384.0000000000001" x2="-215.9999999999997" y2="384.0000000000001" stroke="#8a8a8a" stroke-width="1.00" />
<line x1="-215.9999999999997" y1="384.0000000000001" x2="-216.0000000000001" y2="299.9999999999957" stroke="#8a8a8a" stroke-width="1.00" />
<line x1="0.0" y1="384.0" x2="-216.0000000000003" y2="384.0" stroke="#8a8a8a" stroke-width="1.00" />
<line x1="-216.0000000000003" y1="384.0" x2="-216.0000000000002" y2="299.9999999999955" stroke="#8a8a8a" stroke-width="1.00" />
<line x1="-216.0000000000002" y1="299.9999999999955" x2="-1.03e-14" y2="299.9999999999955" stroke="#8a8a8a" stroke-width="1.00" />
<line x1="-1.03e-14" y1="299.9999999999955" x2="0.0" y2="384.0" stroke="#8a8a8a" stroke-width="1.00" />
<line x1="687.9999999999959" y1="0.0" x2="309.9999999999961" y2="4.63e-14" stroke="#8a8a8a" stroke-width="1.00" />
<line x1="309.9999999999961" y1="4.63e-14" x2="309.9999999999961" y2="-122.0000000000002" stroke="#8a8a8a" stroke-width="1.00" />
<line x1="309.9999999999961" y1="-122.0000000000002" x2="687.9999999999959" y2="-122.0000000000002" stroke="#8a8a8a" stroke-width="1.00" />
<line x1="687.9999999999959" y1="-122.0000000000002" x2="687.9999999999959" y2="0.0" stroke="#8a8a8a" stroke-width="1.00" />
<line x1="228.0" y1="843.5000000000016" x2="89.50000000000017" y2="843.5000000000016" stroke="#8a8a8a" stroke-width="1.00" />
<line x1="89.50000000000017" y1="843.5000000000016" x2="89.49999999999967" y2="753.0000000000013" stroke="#8a8a8a" stroke-width="1.00" />
<line x1="89.49999999999967" y1="753.0000000000013" x2="228.0" y2="752.999999999998" stroke="#8a8a8a" stroke-width="1.00" />
<line x1="228.0" y1="752.999999999998" x2="228.0" y2="843.5000000000016" stroke="#8a8a8a" stroke-width="1.00" />
<line x1="522.5" y1="389.4999999997583" x2="497.5" y2="389.5000000000002" stroke="#8a8a8a" stroke-width="1.00" />
<line x1="497.5" y1="389.5000000000002" x2="497.4999999999991" y2="464.5000000000002" stroke="#8a8a8a" stroke-width="1.00" />
<line x1="497.4999999999991" y1="464.5000000000002" x2="522.5" y2="464.5000000000002" stroke="#8a8a8a" stroke-width="1.00" />
<line x1="522.5" y1="464.5000000000002" x2="522.5" y2="389.4999999997583" stroke="#8a8a8a" stroke-width="1.00" />
<line x1="486.5" y1="467.9999999997582" x2="269.5" y2="468.0000000000001" stroke="#8a8a8a" stroke-width="1.00" />
<line x1="269.5" y1="468.0000000000001" x2="269.5" y2="540.0000000000001" stroke="#8a8a8a" stroke-width="1.00" />
<line x1="269.5" y1="540.0000000000001" x2="486.5" y2="540.0000000000001" stroke="#8a8a8a" stroke-width="1.00" />
<line x1="486.5" y1="540.0000000000001" x2="486.5" y2="467.9999999997582" stroke="#8a8a8a" stroke-width="1.00" />
<line x1="230.0" y1="749.4999999999995" x2="89.49999999999945" y2="749.4999999999995" stroke="#8a8a8a" stroke-width="1.00" />
<line x1="89.49999999999945" y1="749.4999999999995" x2="89.49999999999912" y2="684.0000000000006" stroke="#8a8a8a" stroke-width="1.00" />
<line x1="89.49999999999912" y1="684.0000000000006" x2="230.0" y2="683.9999999999966" stroke="#8a8a8a" stroke-width="1.00" />
<line x1="230.0" y1="683.9999999999966" x2="230.0" y2="749.4999999999995" stroke="#8a8a8a" stroke-width="1.00" />
<line x1="494.0" y1="464.5" x2="426.0000000000013" y2="464.5" stroke="#8a8a8a" stroke-width="1.00" />
<line x1="426.0000000000013" y1="464.5" x2="426.0000000000013" y2="392.0" stroke="#8a8a8a" stroke-width="1.00" />
<line x1="426.0000000000013" y1="392.0" x2="494.0" y2="392.0" stroke="#8a8a8a" stroke-width="1.00" />
<line x1="494.0" y1="392.0" x2="494.0" y2="464.5" stroke="#8a8a8a" stroke-width="1.00" />
<path d="M 769.9999547083377 127.5149575711146 L 769.9999547083377 136.5149575711008 L 751.9999547083655 136.5149575711008 L 751.9999547083655 127.5149575711146 Z" fill="none" stroke="#c0c0c0" stroke-width="1.00" />
<text x="16.54302283850584" y="2.577382848812678" font-size="0.4375" >Westborough Apartments\PWestborough, MA</text>
<text x="0.9315781727228118" y="2.577382848812678" font-size="0.25" >Toll Commerical\PClient Location</text>
<text x="33.01554108097044" y="2.569804174004436" font-size="0.75" >x{\H0.3333x; of x}</text>
<path d="M 32.80762517136035 2.570009161900995 L 32.80762517136033 0.5700091619009946 " fill="none" stroke="#4e4e4e" stroke-width="1.00" />
<text x="33.95778693697896" y="1.482072595000748" font-size="0.249975" >1B.XXXXX</text>
<text x="33.96431338087352" y="1.040980619656818" font-size="0.09375" >Date:</text>
<text x="33.96431338087352" y="1.697819320423465" font-size="0.09375" >Project Number:</text>
<text x="26.97771492487512" y="0.6981463208928336" font-size="0.125" >©7/1/2017 BartonPartners  Architects  Planners, Inc.  All Rights reserved.</text>
<line x1="0.9326251713603415" y1="2.882509161900995" x2="34.87012517136033" y2="2.882509161900992" stroke="#4e4e4e" stroke-width="1.00" />
<line x1="1.182625171360341" y1="2.820009161900995" x2="34.87012517136034" y2="2.820009161900995" stroke="#4e4e4e" stroke-width="1.00" />
<line x1="1.182625171360341" y1="2.820009161900995" x2="1.182625171360341" y2="2.882509161900995" stroke="#4e4e4e" stroke-width="1.00" />
<line x1="34.87012517136033" y1="2.882509161900992" x2="34.87012517136033" y2="2.820009161900995" stroke="#4e4e4e" stroke-width="1.00" />
<text x="29.856369510968747" y="0.784688330925986" font-size="0.125" >{\fTimes New Roman|b0|i0|c0|p34;\C7;700  E. Main Street,  3rd  Floor\PNorristown,  PA   19401 - 4122\Pp 610.930.2800  f 610.930.2808\P\T1.3;www.bartonpartners.com}</text>
<text x="26.685458634514408" y="2.1468107701325683" font-size="0.4539006725692117" >\fBaskerville Old Face|b0|i0|c0|p34;\W1.18683;B\H0.315311;ARTON\H0.453901;P\H0.315284;ARTNERS</text>
<text x="26.693681343583528" y="1.9287523581059933" font-size="0.1345726588022268" >{\fBaskerville Old Face|b0|i0|c0|p34;\W1.1868;\T1.05;A R C H I T E C T S        P L A N N E R S ,    I  N C . \H1.0005x;\T1; }</text>
<text x="32.93500747500006" y="0.8037336050797563" font-size="0.25" >{\T0.9;7/1/2017}</text>
<path d="M 34.47390239595779 4.177781519831001 L 34.47390239595779 3.927781519831001 " fill="none" stroke="#c0c0c0" stroke-width="1.00" />
<path d="M 33.47390239595779 3.927781519831001 L 34.47390239595779 3.927781519831001 L 34.47390239595779 4.052781519831001 L 33.47390239595779 4.052781519831001 Z" fill="none" stroke="#c0c0c0" stroke-width="1.00" />
<path d="M 32.47390239595779 3.927781519831001 L 32.59890239595779 3.927781519831001 L 32.59890239595779 4.052781519831001 L 32.47390239595779 4.052781519831001 Z" fill="none" stroke="#c0c0c0" stroke-width="1.00" />
<path d="M 32.47390239595779 3.927781519831001 L 32.47390239595779 4.177781519831001 " fill="none" stroke="#c0c0c0" stroke-width="1.00" />
<path d="M 32.72390239595779 3.927781519831001 L 32.97390239595779 3.927781519831001 L 32.97390239595779 4.052781519831001 L 32.72390239595779 4.052781519831001 Z" fill="none" stroke="#c0c0c0" stroke-width="1.00" />
<path d="M 32.97390239595779 4.052781519831001 L 33.47390239595779 4.052781519831001 L 33.47390239595779 4.177781519831001 L 32.97390239595779 4.177781519831001 Z" fill="none" stroke="#c0c0c0" stroke-width="1.00" />
<path d="M 32.59890239595779 4.052781519831001 L 32.72390239595779 4.052781519831001 L 32.72390239595779 4.177781519831001 L 32.59890239595779 4.177781519831001 Z" fill="none" stroke="#c0c0c0" stroke-width="1.00" />
<circle cx="13.051781349154622" cy="3.895867285465881" r="0.3124987499999999" stroke="#c0c0c0" stroke-width="1.00" fill="none" />
<line x1="13.364280099154653" y1="3.895867285465881" x2="18.545425881739074" y2="3.8958672854658816" stroke="#c0c0c0" stroke-width="1.00" />
<text x="13.676780007272496" y="3.817767285465889" font-size="0.0938" >SCALE: </text>
</svg>
